<?xml version="1.0" encoding="UTF-8" standalone="no"?>
<!-- Created with Inkscape (http://www.inkscape.org/) -->

<svg
   width="900pc"
   height="220pc"
   viewBox="0 0 3809.9999 931.33333"
   version="1.1"
   id="svg1"
   inkscape:version="1.4.2 (ebf0e940, 2025-05-08)"
   sodipodi:docname="luminity.svg"
   xmlns:inkscape="http://www.inkscape.org/namespaces/inkscape"
   xmlns:sodipodi="http://sodipodi.sourceforge.net/DTD/sodipodi-0.dtd"
   xmlns="http://www.w3.org/2000/svg"
   xmlns:svg="http://www.w3.org/2000/svg">
  <sodipodi:namedview
     id="namedview1"
     pagecolor="#ffffff"
     bordercolor="#000000"
     borderopacity="0.25"
     inkscape:showpageshadow="2"
     inkscape:pageopacity="0.0"
     inkscape:pagecheckerboard="0"
     inkscape:deskcolor="#d1d1d1"
     inkscape:document-units="mm"
     inkscape:zoom="2.2695445"
     inkscape:cx="2409.0737"
     inkscape:cy="5746.7477"
     inkscape:window-width="1088"
     inkscape:window-height="756"
     inkscape:window-x="352"
     inkscape:window-y="25"
     inkscape:window-maximized="0"
     inkscape:current-layer="layer1" />
  <defs
     id="defs1">
    <rect
       x="86.347668"
       y="43.173834"
       width="14117.844"
       height="3281.2114"
       id="rect57" />
    <rect
       x="15326.711"
       y="-6173.8583"
       width="2072.344"
       height="129.5215"
       id="rect56" />
    <rect
       x="215.86917"
       y="259.043"
       width="13858.801"
       height="2892.6469"
       id="rect55" />
    <rect
       x="0"
       y="172.69534"
       width="863.47668"
       height="172.69534"
       id="rect54" />
    <rect
       x="129.5215"
       y="172.69534"
       width="13729.279"
       height="3194.8637"
       id="rect53" />
    <rect
       x="4317.3834"
       y="1856.4749"
       width="5137.6863"
       height="259.043"
       id="rect52" />
    <rect
       x="215.86917"
       y="259.043"
       width="13599.758"
       height="2892.6469"
       id="rect19" />
    <rect
       x="302.21684"
       y="86.347668"
       width="13513.41"
       height="3194.8637"
       id="rect18" />
    <rect
       x="86.347668"
       y="172.69534"
       width="14117.844"
       height="3151.6899"
       id="rect15" />
    <rect
       x="43.173834"
       y="129.5215"
       width="14117.844"
       height="3194.8637"
       id="rect14" />
    <rect
       x="129.5215"
       y="518.08601"
       width="13945.148"
       height="2849.473"
       id="rect13" />
    <rect
       x="259.043"
       y="345.39067"
       width="13599.758"
       height="2849.473"
       id="rect12" />
    <rect
       x="345.39067"
       y="259.043"
       width="13815.627"
       height="3022.1684"
       id="rect11" />
    <rect
       x="215.86917"
       y="431.73834"
       width="13772.453"
       height="2719.9515"
       id="rect10" />
    <rect
       x="2201.8655"
       y="1813.301"
       width="129.5215"
       height="215.86917"
       id="rect9" />
    <rect
       x="302.21684"
       y="345.39067"
       width="13729.279"
       height="3065.3422"
       id="rect8" />
    <rect
       x="259.043"
       y="345.39067"
       width="14117.844"
       height="2892.6469"
       id="rect7" />
    <rect
       x="431.73834"
       y="647.60751"
       width="13513.41"
       height="2504.0824"
       id="rect6" />
    <rect
       x="302.21684"
       y="259.043"
       width="13772.453"
       height="2978.9945"
       id="rect3" />
    <rect
       x="388.56451"
       y="345.39067"
       width="13599.758"
       height="2935.8207"
       id="rect2" />
    <rect
       x="2633.6039"
       y="1381.5627"
       width="11138.849"
       height="1511.0842"
       id="rect1" />
  </defs>
  <g
     inkscape:label="Layer 1"
     inkscape:groupmode="layer"
     id="layer1"
     style="display:inline">
    <text
       xml:space="preserve"
       transform="scale(0.26458333)"
       id="text1"
       style="text-align:start;writing-mode:lr-tb;direction:ltr;white-space:pre;shape-inside:url(#rect1);fill:#000000" />
    <text
       xml:space="preserve"
       transform="scale(0.26458333)"
       id="text2"
       style="text-align:start;writing-mode:lr-tb;direction:ltr;white-space:pre;shape-inside:url(#rect2);fill:#000000" />
    <text
       xml:space="preserve"
       transform="scale(0.26458333)"
       id="text3"
       style="text-align:start;writing-mode:lr-tb;direction:ltr;white-space:pre;shape-inside:url(#rect3);fill:#000000"><tspan
         x="302.2168"
         y="269.99093"
         id="tspan10">L</tspan></text>
    <text
       xml:space="preserve"
       style="font-size:3.175px;text-align:start;writing-mode:lr-tb;direction:ltr;text-anchor:start;fill:#000000;stroke-width:0.264583"
       x="1724.8846"
       y="491.19229"
       id="text4"><tspan
         sodipodi:role="line"
         id="tspan4"
         style="stroke-width:0.264583"
         x="1724.8846"
         y="491.19229">Lu</tspan></text>
    <text
       xml:space="preserve"
       style="font-size:3.175px;text-align:start;writing-mode:lr-tb;direction:ltr;text-anchor:start;fill:#000000;stroke-width:0.264583"
       x="1953.3461"
       y="548.30768"
       id="text5"><tspan
         sodipodi:role="line"
         style="stroke-width:0.264583"
         x="1953.3461"
         y="548.30768"
         id="tspan51">LLLUMIna</tspan></text>
    <text
       xml:space="preserve"
       transform="scale(0.26458333)"
       id="text6"
       style="text-align:start;writing-mode:lr-tb;direction:ltr;white-space:pre;shape-inside:url(#rect6);fill:#000000" />
    <text
       xml:space="preserve"
       transform="scale(0.26458333)"
       id="text7"
       style="text-align:start;writing-mode:lr-tb;direction:ltr;white-space:pre;shape-inside:url(#rect7);fill:#000000" />
    <text
       xml:space="preserve"
       transform="scale(0.26458333)"
       id="text8"
       style="text-align:start;writing-mode:lr-tb;direction:ltr;white-space:pre;shape-inside:url(#rect8);fill:#000000" />
    <text
       xml:space="preserve"
       transform="scale(0.26458333)"
       id="text9"
       style="text-align:start;writing-mode:lr-tb;direction:ltr;white-space:pre;shape-inside:url(#rect9);fill:#000000" />
    <text
       xml:space="preserve"
       transform="scale(0.26458333)"
       id="text10"
       style="text-align:start;writing-mode:lr-tb;direction:ltr;white-space:pre;shape-inside:url(#rect10);fill:#000000" />
    <text
       xml:space="preserve"
       transform="matrix(-0.26458333,0,0,0.26458333,213.58438,0)"
       id="text11"
       style="text-align:start;writing-mode:lr-tb;direction:ltr;white-space:pre;shape-inside:url(#rect11);fill:#000000"><tspan
         x="345.39062"
         y="269.99093"
         id="tspan11">LLlkkkklsklklkslklks</tspan></text>
    <text
       xml:space="preserve"
       transform="scale(0.26458333)"
       id="text12"
       style="text-align:start;writing-mode:lr-tb;direction:ltr;white-space:pre;shape-inside:url(#rect12);fill:#000000" />
    <circle
       id="path12"
       style="fill:#000000;stroke:#000000;stroke-width:0.264583"
       cx="399.80771"
       cy="194.19231"
       r="1.5215427" />
    <text
       xml:space="preserve"
       transform="scale(0.26458333)"
       id="text13"
       style="text-align:start;writing-mode:lr-tb;direction:ltr;white-space:pre;shape-inside:url(#rect13);fill:#000000" />
    <text
       xml:space="preserve"
       transform="scale(0.26458333)"
       id="text14"
       style="text-align:start;writing-mode:lr-tb;direction:ltr;white-space:pre;shape-inside:url(#rect14);fill:#000000;stroke:#000000" />
    <text
       xml:space="preserve"
       transform="scale(0.26458333)"
       id="text15"
       style="text-align:start;writing-mode:lr-tb;direction:ltr;white-space:pre;shape-inside:url(#rect15);fill:#000000;stroke:#000000"><tspan
         x="86.347656"
         y="183.64328"
         id="tspan12">
</tspan><tspan
         x="86.347656"
         y="198.64328"
         id="tspan13">
</tspan></text>
    <text
       xml:space="preserve"
       style="font-size:3.175px;text-align:start;writing-mode:lr-tb;direction:ltr;text-anchor:start;fill:#000000;stroke:#000000;stroke-width:0.264583"
       x="776.76923"
       y="217.03847"
       id="text16"><tspan
         sodipodi:role="line"
         id="tspan16"
         style="stroke-width:0.264583"
         x="776.76923"
         y="217.03847" /><tspan
         sodipodi:role="line"
         style="stroke-width:0.264583"
         id="tspan17"
         x="776.76923"
         y="221.00722" /><tspan
         sodipodi:role="line"
         style="stroke-width:0.264583"
         x="776.76923"
         y="224.97597"
         id="tspan18" /></text>
    <text
       xml:space="preserve"
       transform="scale(0.26458333)"
       id="text18"
       style="text-align:start;writing-mode:lr-tb;direction:ltr;white-space:pre;shape-inside:url(#rect18);fill:#000000;stroke:#000000" />
    <text
       xml:space="preserve"
       transform="scale(0.26458333)"
       id="text19"
       style="text-align:start;writing-mode:lr-tb;direction:ltr;white-space:pre;shape-inside:url(#rect19);fill:#000000;stroke:#000000"><tspan
         x="215.86914"
         y="269.99093"
         id="tspan14">
</tspan><tspan
         x="215.86914"
         y="284.99093"
         id="tspan15">
</tspan></text>
    <text
       xml:space="preserve"
       transform="scale(0.26458333)"
       id="text52"
       style="text-align:start;writing-mode:lr-tb;direction:ltr;white-space:pre;shape-inside:url(#rect52);fill:#000000;stroke:#000000" />
    <text
       xml:space="preserve"
       transform="scale(0.26458333)"
       id="text53"
       style="text-align:start;writing-mode:lr-tb;direction:ltr;white-space:pre;shape-inside:url(#rect53);fill:#000000;stroke:#000000"><tspan
         x="129.52148"
         y="183.64328"
         id="tspan19">LUminity</tspan></text>
    <text
       xml:space="preserve"
       transform="scale(0.26458333)"
       id="text54"
       style="text-align:start;writing-mode:lr-tb;direction:ltr;white-space:pre;shape-inside:url(#rect54);fill:#000000;stroke:#000000" />
    <text
       xml:space="preserve"
       transform="scale(0.26458333)"
       id="text55"
       style="text-align:start;writing-mode:lr-tb;direction:ltr;white-space:pre;shape-inside:url(#rect55);fill:#020202;fill-opacity:1;stroke:#000000"><tspan
         x="215.86914"
         y="269.99093"
         id="tspan20">
</tspan></text>
    <text
       xml:space="preserve"
       transform="scale(0.26458333)"
       id="text56"
       style="font-size:3200px;line-height:0;text-align:start;writing-mode:lr-tb;direction:ltr;white-space:pre;shape-inside:url(#rect56);opacity:0.594378;fill:#020202;fill-opacity:1;stroke:#000000;stroke-width:1.00157;stroke-dasharray:none" />
    <text
       xml:space="preserve"
       transform="scale(0.26458333)"
       id="text57"
       style="font-size:3200px;line-height:0;text-align:start;writing-mode:lr-tb;direction:ltr;white-space:pre;shape-inside:url(#rect57);opacity:0.594378;fill:#020202;fill-opacity:1;stroke:#000000;stroke-width:1.00157;stroke-dasharray:none" />
    <path
       style="font-weight:bold;font-size:846.667px;line-height:0;font-family:'Dancing Script';-inkscape-font-specification:'Dancing Script Bold';white-space:pre;inline-size:3793.57;opacity:0.6;fill:#020202;stroke:#000000;stroke-width:0.265"
       d="m 472.80207,987.50616 q -31.32668,0 -70.27336,-12.70001 -38.94668,-12.7 -80.43337,-30.48001 -40.64001,-17.78 -79.58669,-33.86668 -21.16668,22.86001 -45.72002,35.56002 -24.55334,12.7 -52.49335,12.7 -29.63335,0 -50.800023,-13.54667 Q 71.481915,932.4728 60.475244,913.84613 48.621906,895.21946 48.621906,879.97945 q 0,-16.93334 15.240006,-29.63334 15.240006,-12.70001 54.186688,-12.70001 22.86001,0 49.95335,5.08 27.94001,4.23334 56.72669,11.85334 19.47334,-33.86668 35.56001,-79.5867 16.93334,-45.72001 33.02002,-95.67337 16.08667,-50.80002 32.17334,-99.06003 -42.33335,-14.39334 -65.19336,-39.79335 -22.86,-26.24668 -22.86,-52.49336 0,-16.93334 8.46667,-33.02001 8.46667,-16.93334 24.55334,-27.94001 16.08667,-11.85334 38.10001,-11.85334 -11.00667,13.54667 -14.39334,30.48001 -2.54,16.93334 -2.54,27.09335 0,27.94001 12.70001,47.41335 12.7,19.47334 31.32668,30.48001 16.08667,-48.26002 33.86668,-92.2867 18.62667,-44.87335 40.64001,-78.74003 22.86001,-34.71335 49.95335,-55.03336 27.94002,-20.32 62.65336,-20.32 19.47334,0 40.64002,8.46667 22.01334,7.62 37.25335,27.09334 16.08667,19.47334 16.08667,55.88002 0,28.78668 -12.70001,61.80669 -11.85333,33.02001 -38.10001,63.50003 -26.24668,29.63334 -67.73336,49.95335 -40.64002,19.47334 -99.06004,21.16667 -1.69333,0 -4.23333,0 -1.69334,0 -3.38667,0 -16.08667,49.10669 -33.86668,99.06004 -17.78001,49.95335 -38.10002,95.67337 -20.32,45.72002 -44.02668,81.28003 33.02001,9.31334 72.81336,21.16668 40.64002,11.85334 80.43337,20.32001 40.64001,7.62 71.12002,7.62 20.32001,0 37.25335,-4.23334 17.78001,-5.08 37.25335,-14.39334 -16.93334,47.41336 -42.33335,67.73336 -24.55334,21.16668 -59.26669,21.16668 z M 135.82861,927.3928 q 22.01334,0 35.56001,-10.16 13.54667,-9.31334 27.09334,-23.70668 -26.24667,-9.31333 -49.10668,-15.24 -22.86001,-6.77334 -39.79335,-6.77334 -16.086673,0 -22.860009,5.92667 -7.620003,5.92667 -7.620003,14.39334 0,13.54667 16.93334,24.55334 16.933342,11.00667 39.793352,11.00667 z M 400.83537,564.17266 q 37.25335,-2.54 66.04003,-23.70667 28.78668,-21.16668 49.10669,-50.80002 20.32,-29.63335 30.48001,-60.11336 11.00667,-31.32668 11.00667,-54.18669 0,-22.01334 -8.46667,-29.63334 -8.46667,-8.46667 -19.47334,-8.46667 -24.55334,0 -46.56669,31.32668 -22.01334,31.32668 -42.33335,82.97336 -19.47334,50.80002 -39.79335,112.60671 z m 270.0878,375.07348 q -28.78668,0 -47.41335,-26.24668 -17.78001,-27.09334 -17.78001,-61.80669 0,-23.70667 7.62,-55.88002 7.62001,-32.17334 19.47334,-62.65336 12.70001,-30.48001 25.40001,-50.80002 13.54668,-20.32 24.55335,-20.32 5.92667,0 17.78,6.77333 12.70001,5.92667 22.01334,15.24001 -9.31333,13.54667 -22.86,41.48668 -12.70001,27.94001 -22.86001,60.11336 -10.16001,32.17334 -10.16001,58.42002 0,3.38667 0.84667,16.08667 1.69333,12.70001 6.77334,23.70668 5.08,11.00667 17.78,11.00667 14.39334,0 30.48001,-15.24001 16.93334,-16.08667 33.86668,-40.64001 17.78001,-25.40001 33.86668,-54.18669 16.93334,-28.78668 29.63335,-55.88002 13.54667,-27.09334 22.01334,-45.72002 7.62,0.84667 19.47334,4.23334 12.70001,3.38666 22.01334,9.31333 9.31334,5.08001 9.31334,15.24001 0,2.54 -8.46667,21.16667 -7.62,17.78001 -18.62667,43.18002 -10.16001,25.40001 -18.62668,52.49335 -7.62,26.24668 -7.62,46.56669 0,11.85334 4.23333,21.16667 5.08001,8.46667 18.62668,8.46667 17.78001,0 42.33335,-16.08667 24.55334,-16.08667 50.80002,-46.56668 26.24667,-30.48002 46.56672,-72.81337 l 12.7,10.16001 q -18.62671,45.72002 -48.26005,82.1267 -29.63335,36.40668 -63.50003,56.72669 -33.86668,21.16667 -66.04002,21.16667 -24.55334,0 -37.25335,-11.85334 -11.85334,-11.00667 -16.08667,-28.78668 -4.23334,-18.62667 -5.08,-37.25334 0,-4.23334 0,-8.46667 0,-5.08001 0,-8.46667 -14.39334,22.86001 -31.32668,44.87335 -16.93334,21.16667 -36.40668,35.56001 -18.62668,14.39334 -39.79335,14.39334 z m 751.84023,0.84667 q -33.02,0 -49.1066,-19.47334 -16.0867,-19.47334 -16.0867,-46.56669 0,-19.47334 5.9267,-38.94668 5.9266,-19.47334 11.8533,-38.10001 5.9267,-19.47335 5.9267,-34.71335 0,-14.39334 -5.9267,-19.47334 -5.08,-5.92667 -13.5467,-5.92667 -19.4733,0 -45.72,29.63334 -25.4,29.63335 -63.5,86.36004 -13.5467,20.32 -25.4,43.18001 -11.8534,22.01335 -21.1667,37.25335 -7.62,0 -20.32,-2.54 -11.8534,-2.54 -21.1667,-7.62 -9.3133,-4.23334 -9.3133,-11.85334 0,-7.62 8.4666,-29.63335 8.4667,-22.01334 19.4734,-50.80001 11.0067,-29.63335 19.4733,-57.57336 8.4667,-28.78668 8.4667,-48.26002 0,-11.85334 -4.2333,-18.62667 -4.2334,-6.77334 -13.5467,-6.77334 -17.78,0 -43.18,21.16668 -24.5534,21.16667 -52.4934,55.88002 -27.0933,33.86668 -51.6467,76.20003 -23.7066,41.48668 -38.9467,83.82003 -9.31329,0 -22.85996,-4.23334 -13.54667,-3.38666 -23.70668,-9.31333 -10.16,-5.08 -10.16,-9.31334 0,-0.84667 5.92667,-23.70668 5.92667,-23.70667 14.39334,-58.42002 8.46667,-34.71334 17.78,-71.12003 9.31334,-36.40668 16.08663,-63.50002 2.54,-9.31334 18.6267,-16.08667 16.0867,-7.62001 27.94,-7.62001 11.8534,0 20.32,7.62001 8.4667,7.62 8.4667,20.32001 0,8.46667 -3.3867,24.55334 -3.3866,16.08667 -8.4666,36.40668 17.78,-23.70668 37.2533,-46.56669 20.32,-23.70667 41.4867,-42.33335 22.0133,-18.62667 43.18,-29.63334 22.0134,-11.00667 43.18,-11.00667 31.3267,0 42.3334,22.86001 11.0067,22.01334 11.0067,48.26002 0,11.00667 -1.6934,22.01334 -1.6933,10.16 -5.08,21.16667 -2.54,10.16001 -7.62,24.55335 16.0867,-23.70668 34.7134,-43.18002 19.4733,-20.32001 41.4866,-32.17335 22.0134,-11.85333 46.5667,-11.85333 33.02,0 45.72,20.32 12.7001,19.47334 12.7001,43.18002 0,22.01334 -7.6201,46.56668 -6.7733,23.70668 -14.3933,45.72002 -6.7733,21.16668 -6.7733,36.40668 0,8.46667 4.2333,16.08668 4.2333,6.77333 16.9333,6.77333 22.8601,0 44.0267,-21.16667 21.1667,-21.16668 38.9467,-51.64669 18.6267,-31.32668 31.3267,-59.26669 l 14.3933,17.78001 q -13.5466,34.71334 -35.56,71.12002 -21.1667,35.56002 -49.9533,59.26669 -28.7867,24.55335 -66.0401,24.55335 z m 183.7267,-0.84667 q -37.2534,0 -55.88,-22.01334 -18.6267,-22.01334 -18.6267,-53.34002 0,-19.47334 6.7733,-49.10669 6.7733,-29.63334 18.6267,-61.80669 12.7,-33.02001 28.7867,-61.80669 16.0866,-28.78668 34.7133,-46.56668 18.6267,-18.62668 37.2534,-18.62668 10.16,0 17.78,6.77334 7.62,5.92667 7.62,17.78001 0,11.00667 -13.5467,33.02001 -12.7,22.01334 -30.48,50.80002 -16.9334,28.78668 -30.48,60.11335 -12.7,30.48002 -12.7,58.42003 0,27.09334 9.3133,36.40668 10.16,8.46667 28.7867,8.46667 28.7867,0 62.6533,-28.78668 33.8667,-28.78668 70.2734,-100.75337 l 12.7,13.54667 q -29.6333,74.50669 -75.3534,115.99338 -45.72,41.48668 -98.2133,41.48668 z m 99.9067,-381.84681 q -16.0867,0 -29.6334,-7.62001 -12.7,-8.46667 -12.7,-25.40001 0,-20.32 22.0134,-34.71334 22.0133,-14.39334 45.72,-14.39334 15.24,0 25.4,6.77333 11.0067,6.77334 11.0067,24.55335 0,17.78 -19.4734,34.71334 -19.4733,16.08668 -42.3333,16.08668 z m 324.273,373.38014 q -33.02,0 -50.8,-16.93334 -16.9334,-16.08667 -16.9334,-41.48668 0,-16.93334 5.9267,-35.56002 5.9267,-19.47334 11.8533,-38.94668 5.9267,-19.47334 5.9267,-37.25335 0,-18.62667 -9.3133,-25.4 -8.4667,-7.62001 -20.32,-7.62001 -25.4,0 -52.4934,21.16668 -26.2467,20.32 -51.6467,51.64668 -24.5533,31.32668 -46.5667,65.19336 -22.0133,33.86668 -38.1,60.96003 -16.0866,0 -30.48,-5.92667 -14.3933,-5.08001 -24.5533,-18.62668 0.8466,-4.23333 10.16,-25.40001 8.4666,-22.01334 19.4733,-51.64668 11.0067,-30.48002 19.4734,-63.50003 8.4666,-33.02001 8.4666,-60.11335 5.9267,-6.77334 17.78,-13.54668 12.7,-6.77333 26.2467,-6.77333 29.6334,0 29.6334,25.40001 0,10.16 -4.2334,30.48001 -3.3866,19.47334 -10.16,44.87335 22.0134,-29.63335 48.26,-55.88002 26.2467,-26.24668 54.1867,-42.33335 28.7867,-16.93334 57.5734,-16.93334 36.4067,0 53.34,24.55334 17.78,24.55334 17.78,54.18669 0,25.40001 -8.4667,47.41335 -8.4666,22.01334 -16.9333,41.48668 -7.62,19.47334 -7.62,38.10002 0,13.54667 5.9267,19.47334 6.7733,5.08 14.3933,5.08 20.32,0 42.3334,-19.47334 22.0133,-19.47334 41.4866,-49.10669 20.32,-30.48001 35.56,-60.96002 l 14.3934,11.85334 q -17.78,41.48668 -40.64,76.20003 -22.0134,33.86668 -49.9534,55.03335 -27.0933,20.32001 -60.96,20.32001 z m 182.8797,8.46667 q -37.2533,0 -55.88,-22.01334 -18.6267,-22.01334 -18.6267,-53.34002 0,-19.47334 6.7734,-49.10669 6.7733,-29.63334 18.6266,-61.80669 12.7,-33.02001 28.7867,-61.80669 16.0867,-28.78668 34.7134,-46.56668 18.6266,-18.62668 37.2533,-18.62668 10.16,0 17.78,6.77334 7.62,5.92667 7.62,17.78001 0,11.00667 -13.5467,33.02001 -12.7,22.01334 -30.48,50.80002 -16.9333,28.78668 -30.48,60.11335 -12.7,30.48002 -12.7,58.42003 0,27.09334 9.3134,36.40668 10.16,8.46667 28.7866,8.46667 28.7867,0 62.6534,-28.78668 33.8667,-28.78668 70.2734,-100.75337 l 12.7,13.54667 q -29.6334,74.50669 -75.3534,115.99338 -45.72,41.48668 -98.2134,41.48668 z m 99.9067,-381.84681 q -16.0866,0 -29.6333,-7.62001 -12.7,-8.46667 -12.7,-25.40001 0,-20.32 22.0133,-34.71334 22.0134,-14.39334 45.72,-14.39334 15.24,0 25.4,6.77333 11.0067,6.77334 11.0067,24.55335 0,17.78 -19.4733,34.71334 -19.4734,16.08668 -42.3334,16.08668 z m 115.9928,395.39348 q -37.2533,0 -60.1133,-22.01334 -22.86,-22.01334 -22.86,-66.88669 0,-34.71335 12.7,-86.36004 13.5467,-51.64668 33.8667,-106.68004 -5.9267,-1.69333 -14.3934,-2.54 -7.62,-1.69333 -15.24,-5.08 v -26.24668 q 13.5467,1.69334 22.0134,2.54 9.3133,0.84667 18.6266,1.69334 17.78,-44.87335 38.1,-86.36003 21.1667,-42.33335 41.4867,-75.35337 21.1667,-33.02001 39.7934,-51.64668 18.6267,-19.47334 33.02,-19.47334 8.4667,0 16.0867,6.77333 7.62,5.92667 7.62,17.78001 0,16.93334 -17.78,48.26002 -16.9334,31.32668 -42.3334,73.66003 -25.4,41.48668 -49.1067,88.90003 6.7734,0 13.5467,0 6.7733,0 12.7,0 37.2533,0 66.8867,-0.84667 30.48,-1.69333 61.8067,-5.08 v 27.94001 q -46.5667,4.23334 -85.5134,6.77334 -38.9467,2.54 -74.5067,3.38667 -2.54,0 -5.08,0 -2.54,0 -5.08,0 -17.78,41.48668 -31.3267,85.51336 -12.7,43.18002 -12.7,84.6667 0,34.71335 11.0067,49.10669 11.0067,14.39334 34.7134,14.39334 42.3333,0 86.36,-38.10002 44.8733,-38.94668 77.8933,-104.98671 l 11.8534,8.46667 q -22.0134,49.95336 -55.0334,90.59337 -32.1733,40.64002 -70.2733,63.50003 -38.1,23.70667 -78.7401,23.70667 z m 207.4337,198.12009 q -21.1667,0 -39.7934,-13.5467 -17.78,-12.7 -17.78,-41.4867 0,-27.0933 16.0867,-49.1067 16.0867,-21.1666 41.4867,-39.7933 25.4,-17.78001 54.1867,-33.02001 29.6333,-14.39334 56.7267,-27.09335 9.3133,-24.55334 20.32,-61.80669 11.8533,-38.10001 20.32,-70.27336 -26.2467,36.40668 -55.88,64.34669 -29.6334,27.94001 -66.0401,27.94001 -15.24,0 -32.1733,-5.92666 -16.9333,-6.77334 -28.7867,-22.01335 -11.0067,-16.08667 -11.0067,-42.33335 0,-22.01334 7.62,-53.34002 8.4667,-31.32668 20.3201,-60.96002 12.7,-30.48001 26.2466,-49.95335 13.5467,-20.32001 23.7067,-20.32001 5.08,0 14.3933,4.23333 10.16,3.38667 19.4734,10.16001 9.3133,5.92667 11.8533,13.54667 -7.62,10.16 -16.9333,29.63335 -9.3134,18.62667 -17.78,42.33334 -8.4667,22.86001 -14.3934,44.87336 -5.08,22.01334 -5.08,38.10001 0,12.7 5.08,22.01334 5.08,9.31334 19.4734,9.31334 18.6267,0 38.1,-15.24001 20.32,-15.24 38.9467,-38.94668 19.4733,-23.70667 34.7133,-48.26002 1.6934,-5.92667 3.3867,-18.62667 1.6933,-12.70001 5.9267,-26.24668 4.2333,-14.39334 14.3933,-26.24667 11.0067,-11.85334 30.48,-11.85334 6.7733,0 12.7,0.84666 5.9267,0.84667 14.3934,2.54001 0,12.7 -9.3134,49.95335 -8.4667,36.40668 -22.86,84.6667 -14.3933,48.26002 -32.1733,96.52003 35.56,-14.39333 73.66,-47.41335 38.9467,-33.86668 62.6533,-95.67337 l 14.3934,11.85334 q -12.7,42.33335 -38.9467,73.66003 -25.4,31.32668 -57.5734,53.34002 -32.1733,22.01334 -65.1933,36.40668 -22.86,55.03339 -49.9534,101.59999 -26.2466,46.5667 -55.88,73.6601 -29.6333,27.94 -63.5,27.94 z m -8.4667,-31.3267 q 16.0867,0 44.8734,-33.8667 28.7866,-33.8666 58.42,-101.60001 -27.0933,13.54667 -55.0334,31.32671 -27.0933,18.6266 -45.72,38.9467 -18.6267,20.32 -18.6267,41.4866 0,8.4667 3.3867,16.0867 4.2334,7.62 12.7,7.62 z"
       id="text58"
       transform="translate(468.34616,-251.3077)"
       aria-label="Luminity" />
    <path
       style="font-weight:bold;font-size:846.667px;line-height:0;font-family:'Dancing Script';-inkscape-font-specification:'Dancing Script Bold';white-space:pre;inline-size:3793.57;opacity:0.6;fill:#020202;stroke:#000000;stroke-width:0.265"
       d="m 472.80207,987.50616 q -31.32668,0 -70.27336,-12.70001 -38.94668,-12.7 -80.43337,-30.48001 -40.64001,-17.78 -79.58669,-33.86668 -21.16668,22.86001 -45.72002,35.56002 -24.55334,12.7 -52.49335,12.7 -29.63335,0 -50.800023,-13.54667 Q 71.481915,932.4728 60.475244,913.84613 48.621906,895.21946 48.621906,879.97945 q 0,-16.93334 15.240006,-29.63334 15.240006,-12.70001 54.186688,-12.70001 22.86001,0 49.95335,5.08 27.94001,4.23334 56.72669,11.85334 19.47334,-33.86668 35.56001,-79.5867 16.93334,-45.72001 33.02002,-95.67337 16.08667,-50.80002 32.17334,-99.06003 -42.33335,-14.39334 -65.19336,-39.79335 -22.86,-26.24668 -22.86,-52.49336 0,-16.93334 8.46667,-33.02001 8.46667,-16.93334 24.55334,-27.94001 16.08667,-11.85334 38.10001,-11.85334 -11.00667,13.54667 -14.39334,30.48001 -2.54,16.93334 -2.54,27.09335 0,27.94001 12.70001,47.41335 12.7,19.47334 31.32668,30.48001 16.08667,-48.26002 33.86668,-92.2867 18.62667,-44.87335 40.64001,-78.74003 22.86001,-34.71335 49.95335,-55.03336 27.94002,-20.32 62.65336,-20.32 19.47334,0 40.64002,8.46667 22.01334,7.62 37.25335,27.09334 16.08667,19.47334 16.08667,55.88002 0,28.78668 -12.70001,61.80669 -11.85333,33.02001 -38.10001,63.50003 -26.24668,29.63334 -67.73336,49.95335 -40.64002,19.47334 -99.06004,21.16667 -1.69333,0 -4.23333,0 -1.69334,0 -3.38667,0 -16.08667,49.10669 -33.86668,99.06004 -17.78001,49.95335 -38.10002,95.67337 -20.32,45.72002 -44.02668,81.28003 33.02001,9.31334 72.81336,21.16668 40.64002,11.85334 80.43337,20.32001 40.64001,7.62 71.12002,7.62 20.32001,0 37.25335,-4.23334 17.78001,-5.08 37.25335,-14.39334 -16.93334,47.41336 -42.33335,67.73336 -24.55334,21.16668 -59.26669,21.16668 z M 135.82861,927.3928 q 22.01334,0 35.56001,-10.16 13.54667,-9.31334 27.09334,-23.70668 -26.24667,-9.31333 -49.10668,-15.24 -22.86001,-6.77334 -39.79335,-6.77334 -16.086673,0 -22.860009,5.92667 -7.620003,5.92667 -7.620003,14.39334 0,13.54667 16.93334,24.55334 16.933342,11.00667 39.793352,11.00667 z M 400.83537,564.17266 q 37.25335,-2.54 66.04003,-23.70667 28.78668,-21.16668 49.10669,-50.80002 20.32,-29.63335 30.48001,-60.11336 11.00667,-31.32668 11.00667,-54.18669 0,-22.01334 -8.46667,-29.63334 -8.46667,-8.46667 -19.47334,-8.46667 -24.55334,0 -46.56669,31.32668 -22.01334,31.32668 -42.33335,82.97336 -19.47334,50.80002 -39.79335,112.60671 z m 270.0878,375.07348 q -28.78668,0 -47.41335,-26.24668 -17.78001,-27.09334 -17.78001,-61.80669 0,-23.70667 7.62,-55.88002 7.62001,-32.17334 19.47334,-62.65336 12.70001,-30.48001 25.40001,-50.80002 13.54668,-20.32 24.55335,-20.32 5.92667,0 17.78,6.77333 12.70001,5.92667 22.01334,15.24001 -9.31333,13.54667 -22.86,41.48668 -12.70001,27.94001 -22.86001,60.11336 -10.16001,32.17334 -10.16001,58.42002 0,3.38667 0.84667,16.08667 1.69333,12.70001 6.77334,23.70668 5.08,11.00667 17.78,11.00667 14.39334,0 30.48001,-15.24001 16.93334,-16.08667 33.86668,-40.64001 17.78001,-25.40001 33.86668,-54.18669 16.93334,-28.78668 29.63335,-55.88002 13.54667,-27.09334 22.01334,-45.72002 7.62,0.84667 19.47334,4.23334 12.70001,3.38666 22.01334,9.31333 9.31334,5.08001 9.31334,15.24001 0,2.54 -8.46667,21.16667 -7.62,17.78001 -18.62667,43.18002 -10.16001,25.40001 -18.62668,52.49335 -7.62,26.24668 -7.62,46.56669 0,11.85334 4.23333,21.16667 5.08001,8.46667 18.62668,8.46667 17.78001,0 42.33335,-16.08667 24.55334,-16.08667 50.80002,-46.56668 26.24667,-30.48002 46.56672,-72.81337 l 12.7,10.16001 q -18.62671,45.72002 -48.26005,82.1267 -29.63335,36.40668 -63.50003,56.72669 -33.86668,21.16667 -66.04002,21.16667 -24.55334,0 -37.25335,-11.85334 -11.85334,-11.00667 -16.08667,-28.78668 -4.23334,-18.62667 -5.08,-37.25334 0,-4.23334 0,-8.46667 0,-5.08001 0,-8.46667 -14.39334,22.86001 -31.32668,44.87335 -16.93334,21.16667 -36.40668,35.56001 -18.62668,14.39334 -39.79335,14.39334 z m 751.84023,0.84667 q -33.02,0 -49.1066,-19.47334 -16.0867,-19.47334 -16.0867,-46.56669 0,-19.47334 5.9267,-38.94668 5.9266,-19.47334 11.8533,-38.10001 5.9267,-19.47335 5.9267,-34.71335 0,-14.39334 -5.9267,-19.47334 -5.08,-5.92667 -13.5467,-5.92667 -19.4733,0 -45.72,29.63334 -25.4,29.63335 -63.5,86.36004 -13.5467,20.32 -25.4,43.18001 -11.8534,22.01335 -21.1667,37.25335 -7.62,0 -20.32,-2.54 -11.8534,-2.54 -21.1667,-7.62 -9.3133,-4.23334 -9.3133,-11.85334 0,-7.62 8.4666,-29.63335 8.4667,-22.01334 19.4734,-50.80001 11.0067,-29.63335 19.4733,-57.57336 8.4667,-28.78668 8.4667,-48.26002 0,-11.85334 -4.2333,-18.62667 -4.2334,-6.77334 -13.5467,-6.77334 -17.78,0 -43.18,21.16668 -24.5534,21.16667 -52.4934,55.88002 -27.0933,33.86668 -51.6467,76.20003 -23.7066,41.48668 -38.9467,83.82003 -9.31329,0 -22.85996,-4.23334 -13.54667,-3.38666 -23.70668,-9.31333 -10.16,-5.08 -10.16,-9.31334 0,-0.84667 5.92667,-23.70668 5.92667,-23.70667 14.39334,-58.42002 8.46667,-34.71334 17.78,-71.12003 9.31334,-36.40668 16.08663,-63.50002 2.54,-9.31334 18.6267,-16.08667 16.0867,-7.62001 27.94,-7.62001 11.8534,0 20.32,7.62001 8.4667,7.62 8.4667,20.32001 0,8.46667 -3.3867,24.55334 -3.3866,16.08667 -8.4666,36.40668 17.78,-23.70668 37.2533,-46.56669 20.32,-23.70667 41.4867,-42.33335 22.0133,-18.62667 43.18,-29.63334 22.0134,-11.00667 43.18,-11.00667 31.3267,0 42.3334,22.86001 11.0067,22.01334 11.0067,48.26002 0,11.00667 -1.6934,22.01334 -1.6933,10.16 -5.08,21.16667 -2.54,10.16001 -7.62,24.55335 16.0867,-23.70668 34.7134,-43.18002 19.4733,-20.32001 41.4866,-32.17335 22.0134,-11.85333 46.5667,-11.85333 33.02,0 45.72,20.32 12.7001,19.47334 12.7001,43.18002 0,22.01334 -7.6201,46.56668 -6.7733,23.70668 -14.3933,45.72002 -6.7733,21.16668 -6.7733,36.40668 0,8.46667 4.2333,16.08668 4.2333,6.77333 16.9333,6.77333 22.8601,0 44.0267,-21.16667 21.1667,-21.16668 38.9467,-51.64669 18.6267,-31.32668 31.3267,-59.26669 l 14.3933,17.78001 q -13.5466,34.71334 -35.56,71.12002 -21.1667,35.56002 -49.9533,59.26669 -28.7867,24.55335 -66.0401,24.55335 z m 183.7267,-0.84667 q -37.2534,0 -55.88,-22.01334 -18.6267,-22.01334 -18.6267,-53.34002 0,-19.47334 6.7733,-49.10669 6.7733,-29.63334 18.6267,-61.80669 12.7,-33.02001 28.7867,-61.80669 16.0866,-28.78668 34.7133,-46.56668 18.6267,-18.62668 37.2534,-18.62668 10.16,0 17.78,6.77334 7.62,5.92667 7.62,17.78001 0,11.00667 -13.5467,33.02001 -12.7,22.01334 -30.48,50.80002 -16.9334,28.78668 -30.48,60.11335 -12.7,30.48002 -12.7,58.42003 0,27.09334 9.3133,36.40668 10.16,8.46667 28.7867,8.46667 28.7867,0 62.6533,-28.78668 33.8667,-28.78668 70.2734,-100.75337 l 12.7,13.54667 q -29.6333,74.50669 -75.3534,115.99338 -45.72,41.48668 -98.2133,41.48668 z m 99.9067,-381.84681 q -16.0867,0 -29.6334,-7.62001 -12.7,-8.46667 -12.7,-25.40001 0,-20.32 22.0134,-34.71334 22.0133,-14.39334 45.72,-14.39334 15.24,0 25.4,6.77333 11.0067,6.77334 11.0067,24.55335 0,17.78 -19.4734,34.71334 -19.4733,16.08668 -42.3333,16.08668 z m 324.273,373.38014 q -33.02,0 -50.8,-16.93334 -16.9334,-16.08667 -16.9334,-41.48668 0,-16.93334 5.9267,-35.56002 5.9267,-19.47334 11.8533,-38.94668 5.9267,-19.47334 5.9267,-37.25335 0,-18.62667 -9.3133,-25.4 -8.4667,-7.62001 -20.32,-7.62001 -25.4,0 -52.4934,21.16668 -26.2467,20.32 -51.6467,51.64668 -24.5533,31.32668 -46.5667,65.19336 -22.0133,33.86668 -38.1,60.96003 -16.0866,0 -30.48,-5.92667 -14.3933,-5.08001 -24.5533,-18.62668 0.8466,-4.23333 10.16,-25.40001 8.4666,-22.01334 19.4733,-51.64668 11.0067,-30.48002 19.4734,-63.50003 8.4666,-33.02001 8.4666,-60.11335 5.9267,-6.77334 17.78,-13.54668 12.7,-6.77333 26.2467,-6.77333 29.6334,0 29.6334,25.40001 0,10.16 -4.2334,30.48001 -3.3866,19.47334 -10.16,44.87335 22.0134,-29.63335 48.26,-55.88002 26.2467,-26.24668 54.1867,-42.33335 28.7867,-16.93334 57.5734,-16.93334 36.4067,0 53.34,24.55334 17.78,24.55334 17.78,54.18669 0,25.40001 -8.4667,47.41335 -8.4666,22.01334 -16.9333,41.48668 -7.62,19.47334 -7.62,38.10002 0,13.54667 5.9267,19.47334 6.7733,5.08 14.3933,5.08 20.32,0 42.3334,-19.47334 22.0133,-19.47334 41.4866,-49.10669 20.32,-30.48001 35.56,-60.96002 l 14.3934,11.85334 q -17.78,41.48668 -40.64,76.20003 -22.0134,33.86668 -49.9534,55.03335 -27.0933,20.32001 -60.96,20.32001 z m 182.8797,8.46667 q -37.2533,0 -55.88,-22.01334 -18.6267,-22.01334 -18.6267,-53.34002 0,-19.47334 6.7734,-49.10669 6.7733,-29.63334 18.6266,-61.80669 12.7,-33.02001 28.7867,-61.80669 16.0867,-28.78668 34.7134,-46.56668 18.6266,-18.62668 37.2533,-18.62668 10.16,0 17.78,6.77334 7.62,5.92667 7.62,17.78001 0,11.00667 -13.5467,33.02001 -12.7,22.01334 -30.48,50.80002 -16.9333,28.78668 -30.48,60.11335 -12.7,30.48002 -12.7,58.42003 0,27.09334 9.3134,36.40668 10.16,8.46667 28.7866,8.46667 28.7867,0 62.6534,-28.78668 33.8667,-28.78668 70.2734,-100.75337 l 12.7,13.54667 q -29.6334,74.50669 -75.3534,115.99338 -45.72,41.48668 -98.2134,41.48668 z m 99.9067,-381.84681 q -16.0866,0 -29.6333,-7.62001 -12.7,-8.46667 -12.7,-25.40001 0,-20.32 22.0133,-34.71334 22.0134,-14.39334 45.72,-14.39334 15.24,0 25.4,6.77333 11.0067,6.77334 11.0067,24.55335 0,17.78 -19.4733,34.71334 -19.4734,16.08668 -42.3334,16.08668 z m 115.9928,395.39348 q -37.2533,0 -60.1133,-22.01334 -22.86,-22.01334 -22.86,-66.88669 0,-34.71335 12.7,-86.36004 13.5467,-51.64668 33.8667,-106.68004 -5.9267,-1.69333 -14.3934,-2.54 -7.62,-1.69333 -15.24,-5.08 v -26.24668 q 13.5467,1.69334 22.0134,2.54 9.3133,0.84667 18.6266,1.69334 17.78,-44.87335 38.1,-86.36003 21.1667,-42.33335 41.4867,-75.35337 21.1667,-33.02001 39.7934,-51.64668 18.6267,-19.47334 33.02,-19.47334 8.4667,0 16.0867,6.77333 7.62,5.92667 7.62,17.78001 0,16.93334 -17.78,48.26002 -16.9334,31.32668 -42.3334,73.66003 -25.4,41.48668 -49.1067,88.90003 6.7734,0 13.5467,0 6.7733,0 12.7,0 37.2533,0 66.8867,-0.84667 30.48,-1.69333 61.8067,-5.08 v 27.94001 q -46.5667,4.23334 -85.5134,6.77334 -38.9467,2.54 -74.5067,3.38667 -2.54,0 -5.08,0 -2.54,0 -5.08,0 -17.78,41.48668 -31.3267,85.51336 -12.7,43.18002 -12.7,84.6667 0,34.71335 11.0067,49.10669 11.0067,14.39334 34.7134,14.39334 42.3333,0 86.36,-38.10002 44.8733,-38.94668 77.8933,-104.98671 l 11.8534,8.46667 q -22.0134,49.95336 -55.0334,90.59337 -32.1733,40.64002 -70.2733,63.50003 -38.1,23.70667 -78.7401,23.70667 z m 207.4337,198.12009 q -21.1667,0 -39.7934,-13.5467 -17.78,-12.7 -17.78,-41.4867 0,-27.0933 16.0867,-49.1067 16.0867,-21.1666 41.4867,-39.7933 25.4,-17.78001 54.1867,-33.02001 29.6333,-14.39334 56.7267,-27.09335 9.3133,-24.55334 20.32,-61.80669 11.8533,-38.10001 20.32,-70.27336 -26.2467,36.40668 -55.88,64.34669 -29.6334,27.94001 -66.0401,27.94001 -15.24,0 -32.1733,-5.92666 -16.9333,-6.77334 -28.7867,-22.01335 -11.0067,-16.08667 -11.0067,-42.33335 0,-22.01334 7.62,-53.34002 8.4667,-31.32668 20.3201,-60.96002 12.7,-30.48001 26.2466,-49.95335 13.5467,-20.32001 23.7067,-20.32001 5.08,0 14.3933,4.23333 10.16,3.38667 19.4734,10.16001 9.3133,5.92667 11.8533,13.54667 -7.62,10.16 -16.9333,29.63335 -9.3134,18.62667 -17.78,42.33334 -8.4667,22.86001 -14.3934,44.87336 -5.08,22.01334 -5.08,38.10001 0,12.7 5.08,22.01334 5.08,9.31334 19.4734,9.31334 18.6267,0 38.1,-15.24001 20.32,-15.24 38.9467,-38.94668 19.4733,-23.70667 34.7133,-48.26002 1.6934,-5.92667 3.3867,-18.62667 1.6933,-12.70001 5.9267,-26.24668 4.2333,-14.39334 14.3933,-26.24667 11.0067,-11.85334 30.48,-11.85334 6.7733,0 12.7,0.84666 5.9267,0.84667 14.3934,2.54001 0,12.7 -9.3134,49.95335 -8.4667,36.40668 -22.86,84.6667 -14.3933,48.26002 -32.1733,96.52003 35.56,-14.39333 73.66,-47.41335 38.9467,-33.86668 62.6533,-95.67337 l 14.3934,11.85334 q -12.7,42.33335 -38.9467,73.66003 -25.4,31.32668 -57.5734,53.34002 -32.1733,22.01334 -65.1933,36.40668 -22.86,55.03339 -49.9534,101.59999 -26.2466,46.5667 -55.88,73.6601 -29.6333,27.94 -63.5,27.94 z m -8.4667,-31.3267 q 16.0867,0 44.8734,-33.8667 28.7866,-33.8666 58.42,-101.60001 -27.0933,13.54667 -55.0334,31.32671 -27.0933,18.6266 -45.72,38.9467 -18.6267,20.32 -18.6267,41.4866 0,8.4667 3.3867,16.0867 4.2334,7.62 12.7,7.62 z"
       id="path1"
       transform="translate(468.34616,-251.3077)"
       aria-label="Luminity" />
    <path
       style="font-weight:bold;font-size:846.667px;line-height:0;font-family:'Dancing Script';-inkscape-font-specification:'Dancing Script Bold';white-space:pre;inline-size:3793.57;opacity:0.6;fill:#020202;stroke:#000000;stroke-width:0.265"
       d="m 472.80207,987.50616 q -31.32668,0 -70.27336,-12.70001 -38.94668,-12.7 -80.43337,-30.48001 -40.64001,-17.78 -79.58669,-33.86668 -21.16668,22.86001 -45.72002,35.56002 -24.55334,12.7 -52.49335,12.7 -29.63335,0 -50.800023,-13.54667 Q 71.481915,932.4728 60.475244,913.84613 48.621906,895.21946 48.621906,879.97945 q 0,-16.93334 15.240006,-29.63334 15.240006,-12.70001 54.186688,-12.70001 22.86001,0 49.95335,5.08 27.94001,4.23334 56.72669,11.85334 19.47334,-33.86668 35.56001,-79.5867 16.93334,-45.72001 33.02002,-95.67337 16.08667,-50.80002 32.17334,-99.06003 -42.33335,-14.39334 -65.19336,-39.79335 -22.86,-26.24668 -22.86,-52.49336 0,-16.93334 8.46667,-33.02001 8.46667,-16.93334 24.55334,-27.94001 16.08667,-11.85334 38.10001,-11.85334 -11.00667,13.54667 -14.39334,30.48001 -2.54,16.93334 -2.54,27.09335 0,27.94001 12.70001,47.41335 12.7,19.47334 31.32668,30.48001 16.08667,-48.26002 33.86668,-92.2867 18.62667,-44.87335 40.64001,-78.74003 22.86001,-34.71335 49.95335,-55.03336 27.94002,-20.32 62.65336,-20.32 19.47334,0 40.64002,8.46667 22.01334,7.62 37.25335,27.09334 16.08667,19.47334 16.08667,55.88002 0,28.78668 -12.70001,61.80669 -11.85333,33.02001 -38.10001,63.50003 -26.24668,29.63334 -67.73336,49.95335 -40.64002,19.47334 -99.06004,21.16667 -1.69333,0 -4.23333,0 -1.69334,0 -3.38667,0 -16.08667,49.10669 -33.86668,99.06004 -17.78001,49.95335 -38.10002,95.67337 -20.32,45.72002 -44.02668,81.28003 33.02001,9.31334 72.81336,21.16668 40.64002,11.85334 80.43337,20.32001 40.64001,7.62 71.12002,7.62 20.32001,0 37.25335,-4.23334 17.78001,-5.08 37.25335,-14.39334 -16.93334,47.41336 -42.33335,67.73336 -24.55334,21.16668 -59.26669,21.16668 z M 135.82861,927.3928 q 22.01334,0 35.56001,-10.16 13.54667,-9.31334 27.09334,-23.70668 -26.24667,-9.31333 -49.10668,-15.24 -22.86001,-6.77334 -39.79335,-6.77334 -16.086673,0 -22.860009,5.92667 -7.620003,5.92667 -7.620003,14.39334 0,13.54667 16.93334,24.55334 16.933342,11.00667 39.793352,11.00667 z M 400.83537,564.17266 q 37.25335,-2.54 66.04003,-23.70667 28.78668,-21.16668 49.10669,-50.80002 20.32,-29.63335 30.48001,-60.11336 11.00667,-31.32668 11.00667,-54.18669 0,-22.01334 -8.46667,-29.63334 -8.46667,-8.46667 -19.47334,-8.46667 -24.55334,0 -46.56669,31.32668 -22.01334,31.32668 -42.33335,82.97336 -19.47334,50.80002 -39.79335,112.60671 z m 270.0878,375.07348 q -28.78668,0 -47.41335,-26.24668 -17.78001,-27.09334 -17.78001,-61.80669 0,-23.70667 7.62,-55.88002 7.62001,-32.17334 19.47334,-62.65336 12.70001,-30.48001 25.40001,-50.80002 13.54668,-20.32 24.55335,-20.32 5.92667,0 17.78,6.77333 12.70001,5.92667 22.01334,15.24001 -9.31333,13.54667 -22.86,41.48668 -12.70001,27.94001 -22.86001,60.11336 -10.16001,32.17334 -10.16001,58.42002 0,3.38667 0.84667,16.08667 1.69333,12.70001 6.77334,23.70668 5.08,11.00667 17.78,11.00667 14.39334,0 30.48001,-15.24001 16.93334,-16.08667 33.86668,-40.64001 17.78001,-25.40001 33.86668,-54.18669 16.93334,-28.78668 29.63335,-55.88002 13.54667,-27.09334 22.01334,-45.72002 7.62,0.84667 19.47334,4.23334 12.70001,3.38666 22.01334,9.31333 9.31334,5.08001 9.31334,15.24001 0,2.54 -8.46667,21.16667 -7.62,17.78001 -18.62667,43.18002 -10.16001,25.40001 -18.62668,52.49335 -7.62,26.24668 -7.62,46.56669 0,11.85334 4.23333,21.16667 5.08001,8.46667 18.62668,8.46667 17.78001,0 42.33335,-16.08667 24.55334,-16.08667 50.80002,-46.56668 26.24667,-30.48002 46.56672,-72.81337 l 12.7,10.16001 q -18.62671,45.72002 -48.26005,82.1267 -29.63335,36.40668 -63.50003,56.72669 -33.86668,21.16667 -66.04002,21.16667 -24.55334,0 -37.25335,-11.85334 -11.85334,-11.00667 -16.08667,-28.78668 -4.23334,-18.62667 -5.08,-37.25334 0,-4.23334 0,-8.46667 0,-5.08001 0,-8.46667 -14.39334,22.86001 -31.32668,44.87335 -16.93334,21.16667 -36.40668,35.56001 -18.62668,14.39334 -39.79335,14.39334 z m 751.84023,0.84667 q -33.02,0 -49.1066,-19.47334 -16.0867,-19.47334 -16.0867,-46.56669 0,-19.47334 5.9267,-38.94668 5.9266,-19.47334 11.8533,-38.10001 5.9267,-19.47335 5.9267,-34.71335 0,-14.39334 -5.9267,-19.47334 -5.08,-5.92667 -13.5467,-5.92667 -19.4733,0 -45.72,29.63334 -25.4,29.63335 -63.5,86.36004 -13.5467,20.32 -25.4,43.18001 -11.8534,22.01335 -21.1667,37.25335 -7.62,0 -20.32,-2.54 -11.8534,-2.54 -21.1667,-7.62 -9.3133,-4.23334 -9.3133,-11.85334 0,-7.62 8.4666,-29.63335 8.4667,-22.01334 19.4734,-50.80001 11.0067,-29.63335 19.4733,-57.57336 8.4667,-28.78668 8.4667,-48.26002 0,-11.85334 -4.2333,-18.62667 -4.2334,-6.77334 -13.5467,-6.77334 -17.78,0 -43.18,21.16668 -24.5534,21.16667 -52.4934,55.88002 -27.0933,33.86668 -51.6467,76.20003 -23.7066,41.48668 -38.9467,83.82003 -9.31329,0 -22.85996,-4.23334 -13.54667,-3.38666 -23.70668,-9.31333 -10.16,-5.08 -10.16,-9.31334 0,-0.84667 5.92667,-23.70668 5.92667,-23.70667 14.39334,-58.42002 8.46667,-34.71334 17.78,-71.12003 9.31334,-36.40668 16.08663,-63.50002 2.54,-9.31334 18.6267,-16.08667 16.0867,-7.62001 27.94,-7.62001 11.8534,0 20.32,7.62001 8.4667,7.62 8.4667,20.32001 0,8.46667 -3.3867,24.55334 -3.3866,16.08667 -8.4666,36.40668 17.78,-23.70668 37.2533,-46.56669 20.32,-23.70667 41.4867,-42.33335 22.0133,-18.62667 43.18,-29.63334 22.0134,-11.00667 43.18,-11.00667 31.3267,0 42.3334,22.86001 11.0067,22.01334 11.0067,48.26002 0,11.00667 -1.6934,22.01334 -1.6933,10.16 -5.08,21.16667 -2.54,10.16001 -7.62,24.55335 16.0867,-23.70668 34.7134,-43.18002 19.4733,-20.32001 41.4866,-32.17335 22.0134,-11.85333 46.5667,-11.85333 33.02,0 45.72,20.32 12.7001,19.47334 12.7001,43.18002 0,22.01334 -7.6201,46.56668 -6.7733,23.70668 -14.3933,45.72002 -6.7733,21.16668 -6.7733,36.40668 0,8.46667 4.2333,16.08668 4.2333,6.77333 16.9333,6.77333 22.8601,0 44.0267,-21.16667 21.1667,-21.16668 38.9467,-51.64669 18.6267,-31.32668 31.3267,-59.26669 l 14.3933,17.78001 q -13.5466,34.71334 -35.56,71.12002 -21.1667,35.56002 -49.9533,59.26669 -28.7867,24.55335 -66.0401,24.55335 z m 183.7267,-0.84667 q -37.2534,0 -55.88,-22.01334 -18.6267,-22.01334 -18.6267,-53.34002 0,-19.47334 6.7733,-49.10669 6.7733,-29.63334 18.6267,-61.80669 12.7,-33.02001 28.7867,-61.80669 16.0866,-28.78668 34.7133,-46.56668 18.6267,-18.62668 37.2534,-18.62668 10.16,0 17.78,6.77334 7.62,5.92667 7.62,17.78001 0,11.00667 -13.5467,33.02001 -12.7,22.01334 -30.48,50.80002 -16.9334,28.78668 -30.48,60.11335 -12.7,30.48002 -12.7,58.42003 0,27.09334 9.3133,36.40668 10.16,8.46667 28.7867,8.46667 28.7867,0 62.6533,-28.78668 33.8667,-28.78668 70.2734,-100.75337 l 12.7,13.54667 q -29.6333,74.50669 -75.3534,115.99338 -45.72,41.48668 -98.2133,41.48668 z m 99.9067,-381.84681 q -16.0867,0 -29.6334,-7.62001 -12.7,-8.46667 -12.7,-25.40001 0,-20.32 22.0134,-34.71334 22.0133,-14.39334 45.72,-14.39334 15.24,0 25.4,6.77333 11.0067,6.77334 11.0067,24.55335 0,17.78 -19.4734,34.71334 -19.4733,16.08668 -42.3333,16.08668 z m 324.273,373.38014 q -33.02,0 -50.8,-16.93334 -16.9334,-16.08667 -16.9334,-41.48668 0,-16.93334 5.9267,-35.56002 5.9267,-19.47334 11.8533,-38.94668 5.9267,-19.47334 5.9267,-37.25335 0,-18.62667 -9.3133,-25.4 -8.4667,-7.62001 -20.32,-7.62001 -25.4,0 -52.4934,21.16668 -26.2467,20.32 -51.6467,51.64668 -24.5533,31.32668 -46.5667,65.19336 -22.0133,33.86668 -38.1,60.96003 -16.0866,0 -30.48,-5.92667 -14.3933,-5.08001 -24.5533,-18.62668 0.8466,-4.23333 10.16,-25.40001 8.4666,-22.01334 19.4733,-51.64668 11.0067,-30.48002 19.4734,-63.50003 8.4666,-33.02001 8.4666,-60.11335 5.9267,-6.77334 17.78,-13.54668 12.7,-6.77333 26.2467,-6.77333 29.6334,0 29.6334,25.40001 0,10.16 -4.2334,30.48001 -3.3866,19.47334 -10.16,44.87335 22.0134,-29.63335 48.26,-55.88002 26.2467,-26.24668 54.1867,-42.33335 28.7867,-16.93334 57.5734,-16.93334 36.4067,0 53.34,24.55334 17.78,24.55334 17.78,54.18669 0,25.40001 -8.4667,47.41335 -8.4666,22.01334 -16.9333,41.48668 -7.62,19.47334 -7.62,38.10002 0,13.54667 5.9267,19.47334 6.7733,5.08 14.3933,5.08 20.32,0 42.3334,-19.47334 22.0133,-19.47334 41.4866,-49.10669 20.32,-30.48001 35.56,-60.96002 l 14.3934,11.85334 q -17.78,41.48668 -40.64,76.20003 -22.0134,33.86668 -49.9534,55.03335 -27.0933,20.32001 -60.96,20.32001 z m 182.8797,8.46667 q -37.2533,0 -55.88,-22.01334 -18.6267,-22.01334 -18.6267,-53.34002 0,-19.47334 6.7734,-49.10669 6.7733,-29.63334 18.6266,-61.80669 12.7,-33.02001 28.7867,-61.80669 16.0867,-28.78668 34.7134,-46.56668 18.6266,-18.62668 37.2533,-18.62668 10.16,0 17.78,6.77334 7.62,5.92667 7.62,17.78001 0,11.00667 -13.5467,33.02001 -12.7,22.01334 -30.48,50.80002 -16.9333,28.78668 -30.48,60.11335 -12.7,30.48002 -12.7,58.42003 0,27.09334 9.3134,36.40668 10.16,8.46667 28.7866,8.46667 28.7867,0 62.6534,-28.78668 33.8667,-28.78668 70.2734,-100.75337 l 12.7,13.54667 q -29.6334,74.50669 -75.3534,115.99338 -45.72,41.48668 -98.2134,41.48668 z m 99.9067,-381.84681 q -16.0866,0 -29.6333,-7.62001 -12.7,-8.46667 -12.7,-25.40001 0,-20.32 22.0133,-34.71334 22.0134,-14.39334 45.72,-14.39334 15.24,0 25.4,6.77333 11.0067,6.77334 11.0067,24.55335 0,17.78 -19.4733,34.71334 -19.4734,16.08668 -42.3334,16.08668 z m 115.9928,395.39348 q -37.2533,0 -60.1133,-22.01334 -22.86,-22.01334 -22.86,-66.88669 0,-34.71335 12.7,-86.36004 13.5467,-51.64668 33.8667,-106.68004 -5.9267,-1.69333 -14.3934,-2.54 -7.62,-1.69333 -15.24,-5.08 v -26.24668 q 13.5467,1.69334 22.0134,2.54 9.3133,0.84667 18.6266,1.69334 17.78,-44.87335 38.1,-86.36003 21.1667,-42.33335 41.4867,-75.35337 21.1667,-33.02001 39.7934,-51.64668 18.6267,-19.47334 33.02,-19.47334 8.4667,0 16.0867,6.77333 7.62,5.92667 7.62,17.78001 0,16.93334 -17.78,48.26002 -16.9334,31.32668 -42.3334,73.66003 -25.4,41.48668 -49.1067,88.90003 6.7734,0 13.5467,0 6.7733,0 12.7,0 37.2533,0 66.8867,-0.84667 30.48,-1.69333 61.8067,-5.08 v 27.94001 q -46.5667,4.23334 -85.5134,6.77334 -38.9467,2.54 -74.5067,3.38667 -2.54,0 -5.08,0 -2.54,0 -5.08,0 -17.78,41.48668 -31.3267,85.51336 -12.7,43.18002 -12.7,84.6667 0,34.71335 11.0067,49.10669 11.0067,14.39334 34.7134,14.39334 42.3333,0 86.36,-38.10002 44.8733,-38.94668 77.8933,-104.98671 l 11.8534,8.46667 q -22.0134,49.95336 -55.0334,90.59337 -32.1733,40.64002 -70.2733,63.50003 -38.1,23.70667 -78.7401,23.70667 z m 207.4337,198.12009 q -21.1667,0 -39.7934,-13.5467 -17.78,-12.7 -17.78,-41.4867 0,-27.0933 16.0867,-49.1067 16.0867,-21.1666 41.4867,-39.7933 25.4,-17.78001 54.1867,-33.02001 29.6333,-14.39334 56.7267,-27.09335 9.3133,-24.55334 20.32,-61.80669 11.8533,-38.10001 20.32,-70.27336 -26.2467,36.40668 -55.88,64.34669 -29.6334,27.94001 -66.0401,27.94001 -15.24,0 -32.1733,-5.92666 -16.9333,-6.77334 -28.7867,-22.01335 -11.0067,-16.08667 -11.0067,-42.33335 0,-22.01334 7.62,-53.34002 8.4667,-31.32668 20.3201,-60.96002 12.7,-30.48001 26.2466,-49.95335 13.5467,-20.32001 23.7067,-20.32001 5.08,0 14.3933,4.23333 10.16,3.38667 19.4734,10.16001 9.3133,5.92667 11.8533,13.54667 -7.62,10.16 -16.9333,29.63335 -9.3134,18.62667 -17.78,42.33334 -8.4667,22.86001 -14.3934,44.87336 -5.08,22.01334 -5.08,38.10001 0,12.7 5.08,22.01334 5.08,9.31334 19.4734,9.31334 18.6267,0 38.1,-15.24001 20.32,-15.24 38.9467,-38.94668 19.4733,-23.70667 34.7133,-48.26002 1.6934,-5.92667 3.3867,-18.62667 1.6933,-12.70001 5.9267,-26.24668 4.2333,-14.39334 14.3933,-26.24667 11.0067,-11.85334 30.48,-11.85334 6.7733,0 12.7,0.84666 5.9267,0.84667 14.3934,2.54001 0,12.7 -9.3134,49.95335 -8.4667,36.40668 -22.86,84.6667 -14.3933,48.26002 -32.1733,96.52003 35.56,-14.39333 73.66,-47.41335 38.9467,-33.86668 62.6533,-95.67337 l 14.3934,11.85334 q -12.7,42.33335 -38.9467,73.66003 -25.4,31.32668 -57.5734,53.34002 -32.1733,22.01334 -65.1933,36.40668 -22.86,55.03339 -49.9534,101.59999 -26.2466,46.5667 -55.88,73.6601 -29.6333,27.94 -63.5,27.94 z m -8.4667,-31.3267 q 16.0867,0 44.8734,-33.8667 28.7866,-33.8666 58.42,-101.60001 -27.0933,13.54667 -55.0334,31.32671 -27.0933,18.6266 -45.72,38.9467 -18.6267,20.32 -18.6267,41.4866 0,8.4667 3.3867,16.0867 4.2334,7.62 12.7,7.62 z"
       id="path2"
       transform="translate(468.34616,-251.3077)"
       aria-label="Luminity" />
    <path
       id="path3"
       style="font-weight:bold;font-size:846.667px;line-height:0;font-family:'Dancing Script';-inkscape-font-specification:'Dancing Script Bold';white-space:pre;inline-size:3793.57;opacity:0.6;fill:#020202;stroke:#000000;stroke-width:0.265"
       d="m 826.91746,2084.1216 c -20.88445,0 -44.30891,-4.2334 -70.27336,-12.7001 -25.96445,-8.4667 -52.77558,-18.6267 -80.43337,-30.48 -27.09334,-11.8533 -53.62224,-23.1422 -79.58669,-33.8666 -14.11112,15.24 -29.35113,27.0933 -45.72002,35.56 -16.36889,8.4667 -33.86668,12.7 -52.49335,12.7 -19.75557,0 -36.68891,-4.5156 -50.80002,-13.5467 -14.67557,-8.4667 -25.68224,-18.9089 -33.02002,-31.3267 -7.90222,-12.4177 -11.23331,-15.3303 -11.41559,-32.6698 -0.17532,-16.6765 6.13833,-21.1667 16.29833,-29.6333 10.16001,-8.4667 26.72617,-13.8969 52.69062,-13.8969 15.24001,0 31.89112,1.6933 49.95335,5.08 18.62667,2.8222 37.53557,6.7733 56.72669,11.8533 12.98223,-22.5777 24.83556,-49.1066 35.56001,-79.5867 11.28889,-30.48 22.29557,-62.3711 33.02002,-95.6733 10.72445,-33.8667 21.44889,-66.8868 32.17334,-99.0601 -28.22223,-9.5955 -49.95335,-22.86 -65.19336,-39.7933 -15.24,-17.4978 -22.86,-34.9956 -22.86,-52.4934 0,-11.2889 2.82222,-22.2955 8.46667,-33.02 5.64445,-11.2889 13.82889,-20.6022 24.55334,-27.94 10.72445,-7.9022 23.71134,-14.4181 38.3869,-14.4181 -7.33778,9.0311 -12.42245,21.7559 -14.68023,33.0448 -1.69333,11.2889 -2.54,20.32 -2.54,27.0933 0,18.6267 4.23334,34.4311 12.70001,47.4134 8.46667,12.9822 18.90889,23.1422 31.32668,30.48 10.72445,-32.1733 22.01334,-62.9356 33.86668,-92.2867 12.41778,-29.9156 25.96445,-56.1623 40.64001,-78.74 15.24001,-23.1423 31.89112,-41.4867 49.95335,-55.0334 18.62668,-13.5467 39.51113,-20.32 62.65336,-20.32 12.98223,0 26.5289,2.8222 40.64002,8.4667 14.67556,5.08 27.09334,14.1111 37.25335,27.0933 10.72445,12.9822 16.08667,31.6089 16.08667,55.88 0,19.1911 -4.23334,39.7934 -12.70001,61.8067 -7.90222,22.0133 -20.60222,43.18 -38.10001,63.5 -17.49779,19.7556 -40.07557,36.4067 -67.73336,49.9534 -27.09335,12.9822 -60.11336,20.0378 -99.06004,21.1667 h -4.23333 -3.38667 c -10.72445,32.7378 -22.01334,65.7578 -33.86668,99.06 -11.85334,33.3023 -24.55335,65.1934 -38.10002,95.6734 -13.54667,30.48 -28.22223,57.5733 -44.02668,81.28 22.01334,6.2089 46.28446,13.2644 72.81336,21.1667 27.09335,7.9022 53.90447,14.6755 80.43337,20.32 27.09334,5.08 50.80001,7.62 71.12002,7.62 13.54667,0 25.96446,-1.4111 37.25335,-4.2333 11.85334,-3.3867 24.27112,-8.1845 37.25335,-14.3934 -11.28889,31.6089 -25.40001,54.1867 -42.33335,67.7334 -16.36889,14.1111 -36.12446,21.1667 -59.26669,21.1667 z M 489.944,2024.0082 c 14.67556,0 26.5289,-3.3867 35.56001,-10.16 9.03111,-6.2089 18.06223,-14.1111 27.09334,-23.7067 -17.49778,-6.2089 -33.86667,-11.2889 -49.10668,-15.24 -15.24001,-4.5155 -28.50446,-6.7733 -39.79335,-6.7733 -10.72445,0 -18.34445,1.9755 -22.86001,5.9266 -5.08,3.9511 -6.12393,9.9458 -6.12393,15.5903 0,9.0311 4.14838,16.0187 15.43727,23.3564 11.28889,7.3378 24.55334,11.0067 39.79335,11.0067 z m 265.00676,-363.2201 c 24.83557,-1.6933 46.84891,-9.5956 66.04003,-23.7067 19.19112,-14.1111 35.56002,-31.0445 49.10669,-50.8 13.54667,-19.7556 23.70667,-39.7934 30.48001,-60.1134 7.33778,-20.8845 11.00667,-38.9467 11.00667,-54.1867 0,-14.6755 -2.82222,-24.5533 -8.46667,-29.6333 -5.64445,-5.6445 -12.13556,-8.4667 -19.47334,-8.4667 -16.36889,0 -31.89112,10.4422 -46.56669,31.3267 -14.67556,20.8845 -28.78668,48.5422 -42.33335,82.9733 -12.98223,33.8667 -26.24668,71.4023 -39.79335,112.6068 z m 270.08784,375.0734 c -19.1911,0 -34.99561,-8.7489 -47.41339,-26.2466 -11.85334,-18.0623 -17.78001,-38.6645 -17.78001,-61.8067 0,-15.8045 2.54,-34.4312 7.62,-55.8801 5.08001,-21.4489 11.57112,-42.3333 19.47334,-62.6533 8.46667,-20.32 16.93336,-37.2533 25.39996,-50.8 9.0311,-13.5467 17.2156,-20.32 24.5534,-20.32 3.9511,0 9.8778,2.2578 17.78,6.7733 8.4667,3.9511 15.8044,9.0311 22.0133,15.24 -6.2089,9.0311 -13.8289,22.86 -22.86,41.4867 -8.4667,18.6267 -16.0867,38.6644 -22.86,60.1133 -6.7733,21.4489 -10.16,40.9223 -10.16,58.4201 0,2.2577 0.2822,7.6199 0.8467,16.0866 1.1289,8.4667 3.3866,16.3689 6.7733,23.7067 3.3867,7.3378 9.3133,11.0067 17.78,11.0067 9.5956,0 19.7556,-5.08 30.48,-15.24 11.2889,-10.7245 22.5778,-24.2711 33.8667,-40.64 11.8533,-16.9333 23.1422,-34.9956 33.8667,-54.1867 11.2889,-19.1911 21.1666,-37.8178 29.6333,-55.88 9.0311,-18.0623 16.3689,-33.3023 22.0134,-45.7201 5.08,0.5645 11.5711,1.9756 19.4733,4.2334 8.4667,2.2577 15.8045,5.3622 22.0134,9.3133 6.2089,3.3867 9.3133,8.4667 9.3133,15.24 0,1.6933 -2.8222,8.7489 -8.4667,21.1667 -5.08,11.8533 -11.2889,26.2467 -18.6266,43.18 -6.7733,16.9333 -12.9822,34.4311 -18.6267,52.4934 -5.08,17.4977 -7.62,33.0199 -7.62,46.5666 0,7.9023 1.4111,14.9578 4.2333,21.1667 3.3867,5.6445 9.5956,8.4667 18.6267,8.4667 11.8533,0 25.9644,-5.3622 42.3333,-16.0867 16.3689,-10.7245 33.3023,-26.2467 50.8001,-46.5667 17.4977,-20.32 33.02,-44.5911 46.5667,-72.8133 l 12.7,10.16 c -12.4178,30.48 -28.5045,57.8556 -48.2601,82.1267 -19.7555,24.2711 -40.9222,43.18 -63.5,56.7267 -22.5778,14.1111 -44.5911,21.1666 -66.04,21.1666 -16.3689,0 -28.7867,-3.9511 -37.2534,-11.8533 -7.9022,-7.3378 -13.2644,-16.9334 -16.0866,-28.7867 -2.8223,-12.4178 -4.5156,-24.8356 -5.08,-37.2533 v -8.4667 -8.4667 c -9.5956,15.24 -20.0378,30.1978 -31.3267,44.8734 -11.2889,14.1111 -23.4245,25.9645 -36.4067,35.56 -12.4178,9.5955 -25.6822,14.3933 -39.7933,14.3933 z m 751.8402,0.8467 c -22.0133,0 -38.3822,-6.4911 -49.1066,-19.4733 -10.7245,-12.9823 -16.0867,-28.5045 -16.0867,-46.5667 0,-12.9823 1.9756,-25.9645 5.9267,-38.9467 3.9511,-12.9822 7.9022,-25.6822 11.8533,-38.1 3.9511,-12.9823 5.9267,-24.5534 5.9267,-34.7134 0,-9.5955 -1.9756,-16.0866 -5.9267,-19.4733 -3.3867,-3.9511 -7.9022,-5.9267 -13.5467,-5.9267 -12.9822,0 -28.2222,9.8778 -45.72,29.6334 -16.9333,19.7555 -38.1,48.5422 -63.5,86.36 -9.0311,13.5467 -17.4978,27.94 -25.4,43.18 -7.9023,14.6756 -14.9578,27.0934 -21.1667,37.2534 -5.08,0 -11.8533,-0.8467 -20.32,-2.54 -7.9023,-1.6933 -14.9578,-4.2333 -21.1667,-7.62 -6.2089,-2.8223 -9.3133,-6.7734 -9.3133,-11.8534 0,-5.08 2.8222,-14.9578 8.4666,-29.6333 5.6445,-14.6756 12.1356,-31.6089 19.4734,-50.8 7.3378,-19.7556 13.8289,-38.9467 19.4733,-57.5734 5.6445,-19.1911 8.4667,-35.2778 8.4667,-48.26 0,-7.9023 -1.4111,-14.1112 -4.2333,-18.6267 -2.8223,-4.5155 -7.3378,-6.7733 -13.5467,-6.7733 -11.8533,0 -26.2467,7.0556 -43.18,21.1667 -16.3689,14.1111 -33.8667,32.7377 -52.4934,55.88 -18.0622,22.5778 -35.2778,47.9778 -51.6467,76.2 -15.8044,27.6578 -28.7866,55.5978 -38.9467,83.82 -6.2089,0 -13.8289,-1.4111 -22.86,-4.2333 -9.0311,-2.2578 -16.9333,-5.3622 -23.7067,-9.3133 -6.7733,-3.3867 -10.16,-6.4911 -10.16,-9.3134 0,-0.5644 1.9756,-8.4666 5.9267,-23.7067 3.9511,-15.8044 8.7489,-35.2777 14.3934,-58.42 5.6444,-23.1422 11.5711,-46.8489 17.78,-71.12 6.2089,-24.2711 11.5711,-45.4378 16.0866,-63.5 1.6933,-6.2089 7.9022,-11.5712 18.6267,-16.0867 10.7245,-5.08 20.0378,-7.62 27.94,-7.62 7.9023,0 14.6756,2.54 20.32,7.62 5.6445,5.08 8.4667,11.8533 8.4667,20.32 0,5.6445 -1.1289,13.8289 -3.3867,24.5534 -2.2577,10.7244 -5.0799,22.8599 -8.4666,36.4066 11.8533,-15.8044 24.2711,-31.3266 37.2533,-46.5667 13.5467,-15.8044 27.3756,-29.9155 41.4867,-42.3333 14.6755,-12.4178 29.0689,-22.2956 43.18,-29.6333 14.6756,-7.3378 29.0689,-11.0067 43.18,-11.0067 20.8845,0 34.9956,7.62 42.3334,22.86 7.3378,14.6755 11.0067,30.7622 11.0067,48.26 0,7.3378 -0.5645,14.6756 -1.6934,22.0134 -1.1289,6.7733 -2.8222,13.8289 -5.08,21.1666 -1.6933,6.7733 -4.2333,14.9578 -7.62,24.5534 10.7245,-15.8045 22.2956,-30.1978 34.7134,-43.18 12.9822,-13.5467 26.8111,-24.2712 41.4866,-32.1734 14.6756,-7.9022 30.1978,-11.8533 46.5667,-11.8533 22.0133,0 37.2533,6.7733 45.72,20.32 8.4667,12.9822 12.7001,27.3755 12.7001,43.18 0,14.6755 -2.54,30.1978 -7.6201,46.5667 -4.5155,15.8045 -9.3133,31.0445 -14.3933,45.72 -4.5155,14.1111 -6.7733,26.2467 -6.7733,36.4067 0,5.6444 1.4111,11.0066 4.2333,16.0867 2.8222,4.5155 8.4666,6.7733 16.9333,6.7733 15.2401,0 29.9156,-7.0556 44.0267,-21.1667 14.1111,-14.1111 27.0934,-31.3267 38.9467,-51.6467 12.4178,-20.8845 22.86,-40.64 31.3267,-59.2667 l 14.3933,17.78 c -9.0311,23.1423 -20.8844,46.849 -35.56,71.1201 -14.1111,23.7067 -30.7622,43.4622 -49.9533,59.2667 -19.1911,16.3689 -41.2045,24.5533 -66.0401,24.5533 z m 183.7267,-0.8467 c -24.8356,0 -43.4623,-7.3378 -55.88,-22.0133 -12.4178,-14.6755 -18.6267,-32.4555 -18.6267,-53.34 0,-12.9823 2.2578,-29.3512 6.7733,-49.1067 4.5155,-19.7556 10.7244,-40.3578 18.6267,-61.8067 8.4667,-22.0133 18.0622,-42.6156 28.7867,-61.8067 10.7244,-19.1911 22.2955,-34.7134 34.7133,-46.5667 12.4178,-12.4178 24.8356,-18.6267 37.2534,-18.6267 6.7733,0 12.7,2.2578 17.78,6.7734 5.08,3.9511 7.62,9.8778 7.62,17.78 0,7.3378 -4.5156,18.3445 -13.5467,33.02 -8.4667,14.6755 -18.6267,31.6089 -30.48,50.8 -11.2889,19.1911 -21.4489,39.2289 -30.48,60.1134 -8.4667,20.32 -12.7,39.7933 -12.7,58.42 0,18.0622 3.1044,30.1978 9.3133,36.4067 6.7733,5.6445 16.3689,8.4667 28.7867,8.4667 19.1911,0 40.0756,-9.5956 62.6533,-28.7867 22.5778,-19.1911 46.0023,-52.7756 70.2734,-100.7534 l 12.7,13.5467 c -19.7555,49.6711 -44.8733,88.3356 -75.3534,115.9934 -30.48,27.6577 -63.2178,41.4866 -98.2133,41.4866 z m 424.1797,-8.4666 c -22.0133,0 -38.9467,-5.6445 -50.8,-16.9334 -11.2889,-10.7244 -16.9334,-24.5533 -16.9334,-41.4867 0,-11.2889 1.9756,-23.1422 5.9267,-35.56 3.9511,-12.9822 7.9022,-25.9644 11.8533,-38.9467 3.9511,-12.9822 5.9267,-25.4 5.9267,-37.2533 0,-12.4178 -3.1044,-20.8845 -9.3133,-25.4 -5.6445,-5.08 -12.4178,-7.62 -20.32,-7.62 -16.9333,0 -34.4311,7.0556 -52.4934,21.1667 -17.4978,13.5467 -34.7134,30.7622 -51.6467,51.6466 -16.3689,20.8845 -31.8911,42.6156 -46.5667,65.1934 -14.6755,22.5778 -27.3755,42.8978 -38.1,60.96 -10.7244,0 -20.8844,-1.9755 -30.48,-5.9266 -9.5955,-3.3867 -17.78,-9.5956 -24.5533,-18.6267 0.5644,-2.8222 3.9511,-11.2889 10.16,-25.4 5.6444,-14.6756 12.1355,-31.8912 19.4733,-51.6467 7.3378,-20.32 13.8289,-41.4867 19.4734,-63.5 5.6444,-22.0133 8.4666,-42.0511 8.4666,-60.1134 3.9511,-4.5155 9.8778,-9.0311 17.78,-13.5467 8.4667,-4.5155 17.2156,-6.7733 26.2467,-6.7733 19.7556,0 29.6334,8.4667 29.6334,25.4 0,6.7733 -1.4111,16.9333 -4.2334,30.48 -2.2577,12.9823 -5.6444,27.9401 -10.16,44.8734 14.6756,-19.7556 30.7623,-38.3823 48.26,-55.88 17.4978,-17.4978 35.56,-31.6089 54.1867,-42.3334 19.1911,-11.2889 38.3823,-16.9333 57.5734,-16.9333 24.2711,0 42.0511,8.1844 53.34,24.5533 11.8533,16.3689 17.78,34.4311 17.78,54.1867 0,16.9333 -2.8222,32.7378 -8.4667,47.4133 -5.6444,14.6756 -11.2888,28.5045 -16.9333,41.4867 -5.08,12.9823 -7.62,25.6823 -7.62,38.1 0,9.0311 1.9756,15.5223 5.9267,19.4734 4.5155,3.3867 9.3133,5.08 14.3933,5.08 13.5467,0 27.6578,-6.4911 42.3334,-19.4734 14.6755,-12.9822 28.5044,-29.3511 41.4866,-49.1066 13.5467,-20.3201 25.4,-40.6401 35.56,-60.9601 l 14.3934,11.8534 c -11.8533,27.6578 -25.4,53.0578 -40.64,76.2 -14.6756,22.5778 -31.3267,40.9223 -49.9534,55.0334 -18.0622,13.5467 -38.3822,20.32 -60.96,20.32 z m 182.8797,8.4666 c -24.8355,0 -43.4622,-7.3378 -55.88,-22.0133 -12.4178,-14.6755 -18.6267,-32.4555 -18.6267,-53.34 0,-12.9823 2.2578,-29.3512 6.7734,-49.1067 4.5155,-19.7556 10.7244,-40.3578 18.6266,-61.8067 8.4667,-22.0133 18.0622,-42.6156 28.7867,-61.8067 10.7245,-19.1911 22.2956,-34.7134 34.7134,-46.5667 12.4177,-12.4178 24.8355,-18.6267 37.2533,-18.6267 6.7733,0 12.7,2.2578 17.78,6.7734 5.08,3.9511 7.62,9.8778 7.62,17.78 0,7.3378 -4.5156,18.3445 -13.5467,33.02 -8.4667,14.6755 -18.6267,31.6089 -30.48,50.8 -11.2889,19.1911 -21.4489,39.2289 -30.48,60.1134 -8.4667,20.32 -12.7,39.7933 -12.7,58.42 0,18.0622 3.1045,30.1978 9.3134,36.4067 6.7733,5.6445 16.3689,8.4667 28.7866,8.4667 19.1911,0 40.0756,-9.5956 62.6534,-28.7867 22.5778,-19.1911 46.0023,-52.7756 70.2734,-100.7534 l 12.7,13.5467 c -19.7556,49.6711 -44.8734,88.3356 -75.3534,115.9934 -30.48,27.6577 -63.2178,41.4866 -98.2134,41.4866 z m 215.8995,13.5467 c -24.8355,0 -44.8733,-7.3378 -60.1133,-22.0133 -15.24,-14.6756 -22.86,-36.9712 -22.86,-66.8867 0,-23.1423 4.2333,-51.929 12.7,-86.3601 9.0311,-34.4311 20.32,-69.9911 33.8667,-106.68 -3.9511,-1.1289 -8.7489,-1.9755 -14.3934,-2.54 -5.08,-1.1289 -10.16,-2.8222 -15.24,-5.08 v -26.2467 c 9.0311,1.1289 16.3689,1.9756 22.0134,2.54 l 18.6266,1.6934 c 11.8533,-29.9156 24.5533,-58.7023 38.1,-86.3601 14.1111,-28.2222 27.94,-53.34 41.4867,-75.3533 14.1111,-22.0134 27.3756,-39.229 39.7934,-51.6467 12.4178,-12.9823 23.4245,-19.4734 33.02,-19.4734 5.6445,0 11.0067,2.2578 16.0867,6.7734 5.08,3.9511 7.62,9.8777 7.62,17.78 0,11.2889 -5.9267,27.3755 -17.78,48.26 -11.2889,20.8845 -25.4001,45.4378 -42.3334,73.66 -16.9333,27.6578 -33.3022,57.2912 -49.1067,88.9001 h 13.5467 12.7 c 24.8355,0 47.1311,-0.2822 66.8867,-0.8467 20.32,-1.1289 40.9222,-2.8222 61.8067,-5.08 v 27.94 c -31.0445,2.8222 -59.5489,5.08 -85.5134,6.7733 -25.9645,1.6933 -50.8,2.8222 -74.5067,3.3867 h -5.08 -5.08 c -11.8533,27.6578 -22.2956,56.1623 -31.3267,85.5134 -8.4667,28.7867 -12.7,57.0089 -12.7,84.6667 0,23.1422 3.6689,39.5111 11.0067,49.1067 7.3378,9.5955 18.9089,14.3933 34.7134,14.3933 28.2222,0 57.0089,-12.7 86.36,-38.1 29.9155,-25.9645 55.88,-60.96 77.8933,-104.9867 l 11.8534,8.4666 c -14.6756,33.3023 -33.0201,63.5001 -55.0334,90.5934 -21.4489,27.0933 -44.8733,48.26 -70.2733,63.5 -25.4,15.8045 -51.6467,23.7067 -78.7401,23.7067 z m 207.4337,198.1201 c -14.1111,0 -27.3756,-4.5156 -39.7934,-13.5467 -11.8533,-8.4667 -17.78,-22.2956 -17.78,-41.4867 0,-18.0622 5.3622,-34.4311 16.0867,-49.1067 10.7245,-14.1111 24.5534,-27.3755 41.4867,-39.7933 16.9333,-11.8533 34.9956,-22.86 54.1867,-33.02 19.7555,-9.5956 38.6644,-18.6267 56.7267,-27.0934 6.2089,-16.3689 12.9822,-36.9711 20.32,-61.8067 7.9022,-25.4 14.6755,-48.8244 20.32,-70.2733 -17.4978,24.2711 -36.1245,45.72 -55.88,64.3467 -19.7556,18.6267 -41.769,27.94 -66.0401,27.94 -10.16,0 -20.8844,-1.9756 -32.1733,-5.9267 -11.2889,-4.5155 -20.8844,-11.8533 -28.7867,-22.0133 -7.3378,-10.7245 -11.0067,-24.8356 -11.0067,-42.3334 0,-14.6755 2.54,-32.4555 7.62,-53.34 5.6445,-20.8845 12.4178,-41.2045 20.3201,-60.96 8.4667,-20.32 17.2155,-36.9711 26.2466,-49.9534 9.0311,-13.5467 16.9334,-20.32 23.7067,-20.32 3.3867,0 8.1844,1.4111 14.3933,4.2334 6.7733,2.2577 13.2645,5.6444 19.4734,10.16 6.2089,3.9511 10.16,8.4666 11.8533,13.5466 -5.08,6.7733 -10.7244,16.6511 -16.9333,29.6334 -6.2089,12.4178 -12.1356,26.5289 -17.78,42.3333 -5.6445,15.24 -10.4423,30.1978 -14.3934,44.8734 -3.3867,14.6755 -5.08,27.3755 -5.08,38.1 0,8.4667 1.6933,15.8044 5.08,22.0133 3.3867,6.2089 9.8778,9.3134 19.4734,9.3134 12.4178,0 25.1178,-5.08 38.1,-15.24 13.5467,-10.16 26.5289,-23.1422 38.9467,-38.9467 12.9822,-15.8045 24.5533,-31.8911 34.7133,-48.26 1.1289,-3.9511 2.2578,-10.16 3.3867,-18.6267 1.1289,-8.4667 3.1044,-17.2156 5.9267,-26.2467 2.8222,-9.5955 7.62,-18.3444 14.3933,-26.2467 7.3378,-7.9022 17.4978,-11.8533 30.48,-11.8533 4.5155,0 8.7489,0.2822 12.7,0.8467 3.9511,0.5644 8.7489,1.4111 14.3934,2.54 0,8.4667 -3.1045,25.1178 -9.3134,49.9533 -5.6445,24.2711 -13.2645,52.4934 -22.86,84.6667 -9.5955,32.1733 -20.32,64.3467 -32.1733,96.5201 23.7067,-9.5956 48.26,-25.4001 73.66,-47.4134 25.9645,-22.5778 46.8489,-54.4689 62.6533,-95.6734 l 14.3934,11.8534 c -8.4667,28.2222 -21.4489,52.7755 -38.9467,73.66 -16.9333,20.8845 -36.1245,38.6645 -57.5734,53.34 -21.4489,14.6756 -43.18,26.8112 -65.1933,36.4067 -15.24,36.6889 -31.8911,70.5556 -49.9534,101.6 -17.4977,31.0445 -36.1244,55.5978 -55.88,73.6601 -19.7555,18.6267 -40.9222,27.94 -63.5,27.94 z m -8.4667,-31.3267 c 10.7245,0 25.6823,-11.2889 44.8734,-33.8667 19.1911,-22.5777 38.6644,-56.4444 58.42,-101.6 -18.0622,9.0311 -36.4067,19.4734 -55.0334,31.3267 -18.0622,12.4177 -33.3022,25.4 -45.72,38.9467 -12.4178,13.5467 -18.6267,27.3755 -18.6267,41.4866 0,5.6445 1.1289,11.0067 3.3867,16.0867 2.8223,5.08 7.0556,7.62 12.7,7.62 z"
       sodipodi:nodetypes="ssccssccsssccccccsccccssccccsccsccccccsscccscccsscccscssscsscscssccscssccscccsscsscccccccscccscsssccscscccccccssssscscsccccccssccsssccccccscssccssssccccscsccccsscsccscsscccccssssscscscscccscssccssscscsscsccscccccsccssccscscsscscsscccccssssscscscscccscssccsssssccccccccccscsccccscccsccccssscccccsscsccccccssccscccsccccccssscccsccssccscccccscccsssccsscs" />
  </g>
</svg>
